<?xml version="1.0" standalone="no"?>
<!DOCTYPE svg PUBLIC "-//W3C//DTD SVG 20010904//EN"
 "http://www.w3.org/TR/2001/REC-SVG-20010904/DTD/svg10.dtd">
<svg version="1.0" xmlns="http://www.w3.org/2000/svg"
 width="967.000000pt" height="77.000000pt" viewBox="0 0 967.000000 77.000000"
 preserveAspectRatio="xMidYMid meet">

<g transform="translate(0.000000,77.000000) scale(0.100000,-0.100000)"
fill="#000000" stroke="none">
<path d="M5688 761 c-54 -11 -86 -36 -98 -78 -26 -95 -150 -607 -150 -623 0
-29 33 -48 96 -55 66 -8 68 -7 79 42 6 31 5 33 -20 33 -15 0 -28 7 -32 16 -7
19 123 562 139 582 6 6 23 12 39 12 32 0 34 3 44 48 6 31 6 32 -27 31 -18 -1
-49 -5 -70 -8z"/>
<path d="M6647 764 c-2 -5 -8 -24 -12 -41 -6 -31 -5 -33 20 -33 15 0 28 -7 32
-17 9 -22 -125 -560 -144 -579 -8 -8 -25 -14 -38 -14 -28 0 -30 -3 -40 -49
l-7 -34 62 7 c77 9 108 23 125 57 16 29 165 617 165 647 0 10 -8 26 -17 35
-20 17 -137 34 -146 21z"/>
<path d="M76 419 c-71 -291 -71 -302 -18 -316 39 -11 162 -7 194 5 15 6 34 22
42 34 9 13 43 134 76 268 33 135 63 253 66 263 5 15 -2 17 -49 17 l-55 0 -57
-237 c-32 -131 -64 -248 -71 -260 -17 -26 -62 -31 -70 -8 -5 12 81 386 112
488 5 15 -2 17 -49 17 l-54 0 -67 -271z"/>
<path d="M767 390 l-75 -300 53 0 c39 0 54 4 59 16 5 13 9 14 22 4 35 -30 151
-3 174 40 11 21 80 301 80 325 0 38 -119 64 -155 35 -9 -7 -17 -11 -20 -9 -2
3 7 46 19 97 l24 92 -53 0 -53 0 -75 -300z m190 43 c8 -19 -44 -236 -60 -252
-16 -16 -57 -14 -63 4 -10 25 45 244 64 255 26 15 52 12 59 -7z"/>
<path d="M2225 678 c-4 -12 -129 -514 -140 -566 -5 -21 -2 -22 48 -22 l53 0
69 283 c38 155 70 290 73 300 4 14 -3 17 -47 17 -32 0 -53 -5 -56 -12z"/>
<path d="M2901 595 c-17 -69 -26 -93 -35 -86 -13 11 -36 14 -88 12 -26 -1 -47
-10 -69 -29 -27 -24 -35 -45 -68 -181 -21 -85 -36 -163 -33 -173 2 -10 13 -23
23 -29 26 -14 101 -14 127 0 18 10 22 9 22 -4 0 -13 10 -15 52 -13 l52 3 73
290 c40 160 73 293 73 298 0 4 -24 7 -53 7 l-53 0 -23 -95z m-53 -158 c14 -16
-39 -245 -59 -258 -21 -13 -59 -11 -65 5 -7 20 52 247 68 257 19 13 44 11 56
-4z"/>
<path d="M4386 659 c-9 -49 -9 -49 43 -49 55 0 56 1 66 48 l7 32 -55 0 c-53 0
-55 -1 -61 -31z"/>
<path d="M8696 673 c-2 -10 -7 -28 -11 -40 -6 -22 -4 -23 48 -23 l55 0 10 40
10 40 -53 0 c-43 0 -55 -4 -59 -17z"/>
<path d="M9555 678 c-3 -7 -34 -134 -70 -283 -36 -148 -68 -278 -71 -287 -5
-16 2 -18 48 -18 l53 0 73 293 c40 160 72 295 72 300 0 13 -100 8 -105 -5z"/>
<path d="M3860 661 c-42 -17 -46 -22 -60 -75 -12 -46 -18 -56 -36 -56 -13 0
-24 -8 -27 -20 -4 -15 0 -20 14 -20 10 0 19 -4 19 -9 0 -6 -18 -82 -40 -171
-21 -88 -37 -167 -33 -175 8 -23 34 -34 95 -41 l55 -6 7 32 c9 47 8 50 -13 50
-11 0 -23 5 -26 10 -4 6 5 61 20 123 47 202 41 187 80 187 28 0 35 4 35 20 0
16 -7 20 -30 20 -16 0 -30 1 -30 3 0 1 9 35 19 75 21 80 21 81 -49 53z"/>
<path d="M5905 661 c-49 -17 -50 -19 -65 -74 -12 -49 -18 -57 -37 -57 -16 0
-23 -6 -23 -20 0 -11 7 -20 15 -20 21 0 19 -13 -20 -170 -52 -207 -50 -213 57
-226 l55 -6 10 41 c10 39 10 41 -12 41 -13 0 -25 7 -28 15 -4 8 10 80 29 160
l36 145 34 0 c27 0 34 4 34 20 0 15 -7 20 -29 20 l-29 0 19 73 c10 39 19 73
19 75 0 4 -15 0 -65 -17z"/>
<path d="M7277 662 c-43 -14 -48 -20 -58 -56 -18 -73 -20 -76 -39 -76 -10 0
-21 -7 -24 -16 -9 -23 -8 -24 15 -24 15 0 20 -5 17 -17 -3 -10 -22 -89 -43
-175 -37 -150 -38 -158 -21 -176 18 -21 122 -40 136 -25 4 4 11 22 15 40 5 28
3 32 -17 35 -34 4 -33 34 5 183 33 128 34 130 63 133 49 6 61 42 14 42 -35 0
-34 -2 -15 70 24 89 26 87 -48 62z"/>
<path d="M401 322 c-28 -115 -51 -214 -51 -220 0 -8 18 -12 50 -12 57 0 44
-25 101 203 17 71 38 135 46 143 19 19 52 18 60 -3 3 -9 -9 -80 -27 -157 -18
-78 -35 -151 -38 -163 -4 -21 -1 -23 46 -23 59 0 45 -28 106 217 42 166 44
188 15 203 -27 15 -101 15 -127 1 -28 -15 -32 -14 -26 4 5 12 -4 15 -49 15
l-55 0 -51 -208z"/>
<path d="M1234 521 c-89 -15 -93 -21 -150 -264 -26 -107 -27 -118 -12 -133 35
-35 177 -40 240 -8 33 17 37 23 53 85 l13 49 -53 0 c-51 0 -54 -1 -60 -29 -8
-37 -27 -53 -57 -49 -20 3 -23 9 -22 44 1 73 2 74 107 74 l95 0 21 85 c11 46
21 91 21 99 0 37 -107 63 -196 47z m74 -94 c2 -10 1 -29 -2 -43 -5 -20 -12
-24 -47 -24 -41 0 -41 0 -35 32 3 17 11 37 18 45 16 20 62 12 66 -10z"/>
<path d="M1585 521 c-49 -9 -81 -26 -94 -50 -13 -23 -81 -294 -81 -320 0 -37
44 -55 134 -55 119 1 150 22 175 117 l9 37 -52 0 c-50 0 -52 -1 -65 -35 -8
-24 -20 -37 -37 -41 -39 -10 -49 8 -38 63 l9 48 96 3 97 3 21 85 c23 90 21
118 -7 133 -25 13 -121 20 -167 12z m70 -82 c4 -6 4 -26 1 -45 -7 -32 -9 -34
-46 -34 -35 0 -40 3 -40 23 0 12 7 33 16 45 16 23 58 30 69 11z"/>
<path d="M2297 332 c-26 -108 -50 -207 -54 -220 -5 -22 -4 -23 48 -20 l53 3
40 161 c23 89 47 169 55 178 17 20 57 21 65 0 3 -8 -12 -87 -34 -174 -22 -88
-40 -162 -40 -165 0 -3 24 -5 53 -5 l53 0 44 183 c24 100 45 187 47 193 2 6
-4 21 -15 34 -14 18 -28 22 -69 22 -27 0 -60 -5 -72 -11 -17 -10 -21 -9 -21 4
0 12 -12 15 -52 15 l-53 0 -48 -198z"/>
<path d="M3001 353 c-25 -98 -46 -185 -48 -193 -12 -45 72 -78 139 -56 32 12
38 12 38 -1 0 -11 12 -13 52 -11 l53 3 46 190 c25 105 49 202 52 218 7 27 7
27 -46 27 l-53 0 -38 -157 c-21 -87 -45 -168 -52 -180 -16 -26 -61 -31 -70 -9
-5 12 48 251 72 329 5 15 -2 17 -48 17 l-54 0 -43 -177z"/>
<path d="M3472 521 c-56 -10 -89 -44 -107 -112 -30 -110 -17 -131 79 -139 54
-4 61 -8 64 -28 5 -37 -24 -74 -56 -70 -24 3 -27 7 -26 41 l1 37 -52 0 -52 0
-11 -51 c-13 -55 -5 -84 25 -93 89 -25 205 -11 239 28 12 13 29 54 38 92 l17
69 -26 22 c-20 18 -38 23 -81 23 -63 0 -72 11 -54 65 8 23 19 37 35 41 34 8
45 -2 45 -42 l0 -34 50 0 c48 0 49 1 59 38 16 56 13 80 -11 96 -29 18 -119 27
-176 17z"/>
<path d="M4005 518 c-6 -17 -105 -416 -105 -423 0 -3 24 -5 53 -5 l53 0 38
159 c20 87 44 168 52 180 20 27 60 28 69 1 6 -18 14 -21 58 -18 46 3 51 5 58
32 10 35 -3 62 -33 71 -31 11 -94 8 -117 -5 -17 -9 -21 -8 -21 5 0 19 -98 22
-105 3z"/>
<path d="M4307 333 c-26 -109 -50 -208 -54 -221 -5 -22 -4 -23 48 -20 l53 3
53 210 c29 116 53 213 53 218 0 4 -24 7 -53 7 l-52 0 -48 -197z"/>
<path d="M4592 521 c-74 -13 -89 -38 -133 -216 -40 -163 -40 -188 -2 -199 51
-14 107 -16 159 -7 79 15 101 36 119 119 l7 32 -56 0 c-47 0 -56 -3 -56 -18 0
-29 -29 -62 -55 -62 -34 0 -38 14 -25 70 l12 49 96 3 96 3 18 70 c22 88 22
118 1 137 -21 19 -121 29 -181 19z m73 -116 c0 -40 0 -40 -42 -43 -46 -3 -49
1 -32 45 12 33 27 44 54 41 16 -3 20 -11 20 -43z"/>
<path d="M4942 521 c-56 -10 -89 -44 -107 -112 -30 -110 -17 -131 79 -139 54
-4 61 -8 64 -28 5 -37 -24 -74 -56 -70 -24 3 -27 7 -26 41 l1 37 -52 0 -52 0
-11 -51 c-20 -86 4 -105 133 -102 83 1 118 13 141 48 20 31 46 133 39 156 -8
24 -49 39 -106 39 -58 0 -67 12 -49 65 8 23 19 37 35 41 34 8 45 -2 45 -42 l0
-34 50 0 c48 0 49 1 59 38 15 53 14 77 -6 94 -21 19 -121 29 -181 19z"/>
<path d="M6045 518 c-2 -7 -25 -98 -50 -203 -25 -104 -48 -198 -51 -207 -5
-16 2 -18 48 -18 l54 0 38 157 c21 87 45 168 52 181 17 25 62 30 70 7 5 -12
-44 -236 -72 -327 -5 -16 2 -18 48 -18 l54 0 38 157 c21 87 45 168 52 181 18
28 60 30 69 3 4 -15 -41 -223 -71 -323 -5 -16 2 -18 49 -18 l55 0 46 191 c49
202 49 224 3 234 -62 13 -104 8 -127 -15 -24 -24 -30 -25 -30 -6 0 8 -9 18
-21 21 -32 10 -110 8 -122 -4 -15 -15 -27 -14 -27 4 0 19 -98 22 -105 3z"/>
<path d="M7505 521 c-51 -9 -82 -29 -94 -61 -6 -14 -26 -89 -46 -168 -39 -156
-37 -175 13 -189 44 -12 166 -7 197 8 32 16 60 58 69 107 l6 32 -55 0 c-46 0
-55 -3 -55 -18 0 -33 -30 -63 -58 -60 -32 4 -37 22 -22 77 l11 41 94 0 94 0
11 43 c6 23 15 58 21 77 14 55 11 78 -13 94 -28 18 -119 27 -173 17z m70 -116
c0 -40 0 -40 -42 -43 -46 -3 -49 1 -32 45 12 33 27 44 54 41 16 -3 20 -11 20
-43z"/>
<path d="M7721 322 c-28 -115 -51 -214 -51 -220 0 -8 18 -12 50 -12 57 0 44
-25 101 203 17 71 38 135 46 143 21 21 54 17 60 -6 4 -17 14 -20 58 -20 56 0
65 8 65 54 0 37 -31 57 -90 58 -29 0 -57 -5 -63 -11 -16 -16 -27 -14 -21 4 5
12 -4 15 -49 15 l-55 0 -51 -208z"/>
<path d="M8067 310 l-55 -220 54 0 c62 0 50 -23 104 207 17 72 38 137 45 143
22 18 60 8 63 -16 2 -12 -15 -91 -36 -177 l-40 -157 54 0 c62 0 51 -21 105
207 27 115 35 136 55 145 29 14 54 4 54 -21 0 -11 -16 -84 -35 -162 -19 -79
-35 -149 -35 -156 0 -9 16 -13 50 -13 57 0 43 -28 104 217 42 164 42 174 17
197 -28 25 -117 24 -143 -2 -20 -19 -21 -19 -39 -1 -24 24 -121 29 -143 8 -15
-14 -29 -11 -22 6 4 12 -5 15 -48 15 l-54 0 -55 -220z"/>
<path d="M8655 508 c-2 -13 -27 -112 -54 -220 l-49 -198 54 0 c47 0 54 3 59
23 2 12 27 111 54 220 l49 197 -54 0 c-47 0 -54 -3 -59 -22z"/>
<path d="M8811 493 c-11 -40 -75 -302 -90 -365 l-9 -38 53 0 53 0 41 167 c23
92 47 173 53 180 14 18 57 16 64 -2 4 -8 -12 -89 -33 -180 l-40 -165 52 0 53
0 47 189 c27 108 44 198 40 210 -3 11 -16 23 -27 27 -32 10 -110 6 -122 -6
-14 -14 -26 -12 -26 5 0 11 -12 15 -50 15 -49 0 -49 -1 -59 -37z"/>
<path d="M9260 521 c-71 -15 -94 -40 -114 -123 -6 -28 -6 -28 49 -28 46 0 55
3 55 18 0 30 30 63 53 60 27 -4 31 -25 17 -77 l-11 -41 -62 0 c-112 0 -147
-34 -164 -156 -5 -37 -2 -44 20 -59 29 -19 123 -23 140 -6 16 16 30 13 23 -4
-4 -12 4 -15 43 -15 l49 0 46 186 c26 102 44 195 41 205 -4 11 -14 23 -23 28
-25 13 -122 21 -162 12z m30 -271 c0 -6 -7 -27 -15 -46 -12 -30 -19 -35 -42
-32 -22 2 -29 9 -31 31 -2 16 2 35 9 43 13 16 79 19 79 4z"/>
</g>
</svg>
