<svg xmlns="http://www.w3.org/2000/svg" xmlns:svg="http://www.w3.org/2000/svg" id="svg1" width="24" height="24" version="1.1"><path id="path1" fill="#1185fe" d="M 5.4201605,3.1496791 C 8.0835248,5.1491646 10.948277,9.2032895 12.000069,11.378968 13.05194,9.20345 15.91653,5.1491243 18.579975,3.1496791 c 1.921743,-1.4427495 5.035464,-2.55906665 5.035464,0.9931141 0,0.7094188 -0.406738,5.9594878 -0.645295,6.8118128 -0.829217,2.963282 -3.850854,3.719083 -6.538653,3.261638 4.698219,0.799617 5.893401,3.448243 3.312265,6.096867 -4.902088,5.030256 -7.045724,-1.26211 -7.595252,-2.874443 -0.100692,-0.295579 -0.147811,-0.433854 -0.148503,-0.316275 -6.99e-4,-0.117584 -0.04781,0.0207 -0.148506,0.316275 -0.549286,1.612333 -2.6928836,7.904861 -7.5952504,2.874443 C 1.6750691,17.664487 2.8702105,15.015701 7.5685074,14.216244 4.8806308,14.673689 1.8589521,13.917885 1.0298554,10.954606 0.79129152,10.1022 0.38456104,4.8521314 0.38456104,4.1427932 c 0,-3.55218075 3.11380046,-2.4358636 5.03546366,-0.9931141 z" style="stroke-width:.040053;fill:#fff;fill-opacity:1"/></svg>